<svg xmlns="http://www.w3.org/2000/svg" viewBox="0 0 64 80" x="0px" y="0px"><path d="M25.25836,29.99536c-1.72278-5.08545-9.02142-5.3584-11.13-.44-3.47235-1.74603-7.90582,.67145-8.42999,4.44,.04004-.01001,.08002-.01001,.12-.01001h7c1.63,0,3.09003,.78998,4,2,.91003-1.21002,2.37-2,4-2,.58881,.05646,4.12445-.15137,4.60004,.15997l1.39996-4.02997c-.5-.10004-1.01996-.15002-1.56-.12Z"/><path d="M57.48095,8.86426c-1.13379-1.13281-3.10986-1.13281-4.24268,0l-4.94971,4.94922c-.92163,.92163-1.10571,2.29407-.5752,3.40887l-2.245,2.25299-5.10999-5.10999c-1.96417-2.08801-5.74762-1.21277-6.60999,1.52008l-7.70001,22.1499c-.51001,1.46002-.15002,3.04999,.94995,4.14001,1.08771,1.10785,2.70306,1.45947,4.14001,.95001l22.15002-7.70001c2.72906-.86316,3.61169-4.64532,1.51984-6.61011l-5.09985-5.09991,2.24585-2.25385c1.13049,.54797,2.49048,.33533,3.40515-.57672l4.94971-4.9502c1.16327-1.11591,1.16357-3.12573,0-4.24219l-2.82812-2.82812Zm-14.14258,18.3811c-.93329,.90472-2.34149-.48859-1.40997-1.4101l7.0694-7.0694,1.41003,1.41003-7.06946,7.06946Zm15.55664-12.72485l-4.94971,4.9502c-.39014,.39062-1.02539,.38965-1.41455,0l-2.82812-2.82812c-.39014-.39062-.39014-1.02441,0-1.41504l4.9502-4.94922c.37695-.37891,1.03564-.37891,1.41357,0l2.82812,2.82812c.3877,.37177,.38837,1.04266,.00049,1.41406Z"/><rect x="32.81836" y="46.98535" width="28" height="9" rx="3" ry="3"/><rect x="2.81836" y="46.98535" width="28" height="9" rx="3" ry="3"/><path d="M24.63836,35.98535h-3.82001c-1.65997,0-3,1.33997-3,3v3c0,1.65997,1.34003,3,3,3h6.95001c-3.01831-1.05066-4.73914-4.58057-3.60992-7.60999l.47992-1.39001Z"/><path d="M44.81836,41.98535v-1.5l-12.92999,4.5h9.92999c1.66003,0,3-1.34003,3-3Z"/><path d="M57.81836,35.98535h-1.70001c-.59998,.57996-1.33997,1.03998-2.16998,1.32996l-7.13,2.48004v2.19c0,1.65997,1.34003,3,3,3h8c1.66003,0,3-1.34003,3-3v-3c0-1.66003-1.33997-3-3-3Z"/><rect x="2.81836" y="35.98535" width="13" height="9" rx="3" ry="3"/><text x="0" y="79" fill="#000000" font-size="5px" font-weight="bold" font-family="'Helvetica Neue', Helvetica, Arial-Unicode, Arial, Sans-serif">Created by LUTFI GANI AL ACHMAD</text><text x="0" y="84" fill="#000000" font-size="5px" font-weight="bold" font-family="'Helvetica Neue', Helvetica, Arial-Unicode, Arial, Sans-serif">from the Noun Project</text></svg>